<svg width="225" height="35" viewBox="0 0 225 35" fill="none" xmlns="http://www.w3.org/2000/svg">
<path d="M27.7662 19.3657C27.7662 20.5247 27.3034 21.5388 26.3779 22.4081C25.4524 23.2774 24.3726 23.712 23.1385 23.712H5.2888V32.4047H0V10.673L4.6277 6.32666H0V1.98032H23.1385C24.3726 1.98032 25.4524 2.41495 26.3779 3.28422C27.3034 4.15348 27.7662 5.16765 27.7662 6.32666V19.3657ZM22.4774 19.3657V6.32666H5.2888V23.0911L9.25541 19.3657H22.4774ZM53.8771 28.0583C53.8771 29.2588 53.4143 30.2936 52.4888 31.1629C51.6072 31.9908 50.5277 32.4047 49.2494 32.4047H35.3663C34.0882 32.4047 32.9863 31.9908 32.0608 31.1629C31.1793 30.2936 30.7386 29.2588 30.7386 28.0583V15.0193C30.7386 13.8189 31.1793 12.8048 32.0608 11.9769C32.9863 11.1076 34.0882 10.673 35.3663 10.673H49.2494C50.5277 10.673 51.6072 11.1076 52.4888 11.9769C53.4143 12.8048 53.8771 13.8189 53.8771 15.0193V28.0583ZM49.2494 28.6792V14.3984H35.3663V28.6792H49.2494ZM61.1647 6.94756H56.537V1.98032H61.1647V6.94756ZM61.1647 32.4047H56.537V13.7775L61.1647 9.43118V32.4047ZM86.945 32.4047H82.3173V14.3984H68.4342V32.4047H63.8065V10.673H68.4342V13.7775L71.7397 10.673H82.3173C83.5956 10.673 84.6751 11.1076 85.5567 11.9769C86.4823 12.8048 86.945 13.8189 86.945 15.0193V32.4047ZM104.81 32.4047H95.5548C94.2765 32.4047 93.1749 31.9908 92.2493 31.1629C91.3677 30.2936 90.9271 29.2588 90.9271 28.0583V14.3984H84.3161L88.2827 10.673H90.9271V6.32666L95.5548 1.98032V10.673H104.81V14.3984H95.5548V28.6792H104.81V32.4047Z" fill="#004814"/>
<path d="M112.503 35L96.3507 19.4395L101.321 14.8885L123.154 18.3103L128.692 13.2387L119.924 4.79174L116.611 7.82569L112.919 4.26916L116.232 1.23507C117.147 0.397086 118.228 -0.014456 119.475 0.000387554C120.784 0.0160072 121.884 0.453552 122.776 1.31307L132.467 10.6493C133.36 11.5089 133.782 12.5383 133.735 13.7379C133.75 14.9384 133.3 15.9576 132.385 16.7953L125.521 23.0806L104.06 19.7509L103.587 20.1846L115.817 31.9658L112.503 35Z" fill="#00A22D"/>
<path d="M147.956 19.2537C147.956 20.4126 147.493 21.4269 146.568 22.2962C145.642 23.1654 144.562 23.6001 143.328 23.6001H125.479L125.479 32.2927H120.19V22.2962L120.191 22.2173L125.479 22.9792L125.479 16.154L123.178 18.31L120.285 17.8429L120.19 10.5611L124.817 6.21472H120.19V1.86838H143.328C144.562 1.86838 145.642 2.30301 146.568 3.17228C147.493 4.04155 147.956 5.05586 147.956 6.21472V19.2537ZM142.667 19.2537V6.21472H125.479L125.479 16.154L125.479 22.9792L129.445 19.2537H142.667ZM174.067 27.9464C174.067 29.147 173.604 30.1817 172.679 31.0509C171.797 31.879 170.717 32.2927 169.439 32.2927H155.556C154.278 32.2927 153.176 31.879 152.251 31.0509C151.369 30.1817 150.928 29.147 150.928 27.9464V14.9074C150.928 13.7068 151.369 12.693 152.251 11.865C153.176 10.9957 154.278 10.5611 155.556 10.5611H169.439C170.717 10.5611 171.797 10.9957 172.679 11.865C173.604 12.693 174.067 13.7068 174.067 14.9074V27.9464ZM169.439 28.5673V14.2865H155.556V28.5673H169.439ZM181.354 6.83562H176.727V1.86838H181.354V6.83562ZM181.354 32.2927H176.727V13.6656L181.354 9.31924V32.2927ZM207.135 32.2927H202.507V14.2865H188.624V32.2927H183.996V10.5611H188.624V13.6656L191.929 10.5611H202.507C203.785 10.5611 204.865 10.9957 205.746 11.865C206.672 12.693 207.135 13.7068 207.135 14.9074V32.2927ZM225 32.2927H215.745C214.466 32.2927 213.365 31.879 212.439 31.0509C211.557 30.1817 211.117 29.147 211.117 27.9464V14.2865H204.506L208.472 10.5611H211.117V6.21472L215.745 1.86838V10.5611H225V14.2865H215.745V28.5673H225V32.2927Z" fill="#004814"/>
</svg>
