<svg width="60" height="63" viewBox="0 0 60 63" fill="none" xmlns="http://www.w3.org/2000/svg">
<circle cx="30" cy="30" r="30" fill="#072F00"/>
<path d="M45.4945 47.6154C45.4945 45.595 45.0895 43.5945 44.3025 41.7279C43.5156 39.8614 42.3621 38.1654 40.908 36.7368C39.4539 35.3082 37.7276 34.175 35.8278 33.4019C33.9279 32.6287 31.8916 32.2308 29.8352 32.2308C27.7788 32.2308 25.7425 32.6287 23.8426 33.4019C21.9427 34.175 20.2165 35.3082 18.7624 36.7368C17.3083 38.1654 16.1548 39.8614 15.3678 41.728C14.5809 43.5945 14.1758 45.5951 14.1758 47.6154L29.8352 47.6154H45.4945Z" fill="#D9D9D9"/>
<path d="M38.2418 21.0769C38.2418 25.3253 34.5518 28.7692 30 28.7692C25.4482 28.7692 21.7582 25.3253 21.7582 21.0769C21.7582 16.8286 25.4482 13.3846 30 13.3846C34.5518 13.3846 38.2418 16.8286 38.2418 21.0769Z" fill="#D9D9D9"/>
</svg>
